<?xml version="1.0" encoding="utf-8"?>
<!DOCTYPE svg PUBLIC "-//W3C//DTD SVG 1.1//EN" "http://www.w3.org/Graphics/SVG/1.1/DTD/svg11.dtd">
<svg version="1.1" id="图形" xmlns="http://www.w3.org/2000/svg" xmlns:xlink="http://www.w3.org/1999/xlink" x="0px" y="0px" width="15px" height="15px" viewBox="0 0 1024 1024" enable-background="new 0 0 1024 1024" xml:space="preserve">
  <path fill="#ffffff" d="M641.648 643.408 855.36 429.68 385.2-40.528 171.456 173.216 641.648 643.408zM727.136 728.864l213.744-213.728-64.128-64.08L663.008 664.784 727.136 728.864zM150.096 151.824l213.728-213.712L64.608-147.392 150.096 151.824zM809.984 731.568l133.584-133.6c22.112-22.096 20.928-59.216-2.672-82.832-23.648-23.6-60.704-24.784-82.832-2.64l-133.616 133.552c-22.112 22.16-20.928 59.216 2.688 82.816C750.768 752.48 787.824 753.664 809.984 731.568z" transform="translate(0, 812) scale(1, -1)"/>
</svg>
