<?xml version="1.0" encoding="utf-8"?>
<!DOCTYPE svg PUBLIC "-//W3C//DTD SVG 1.1//EN" "http://www.w3.org/Graphics/SVG/1.1/DTD/svg11.dtd">
<svg version="1.1" id="图形" xmlns="http://www.w3.org/2000/svg" xmlns:xlink="http://www.w3.org/1999/xlink" x="0px" y="0px" width="20px" height="20px" viewBox="0 0 1024 1024" enable-background="new 0 0 1024 1024" xml:space="preserve">
  <path fill="#fff" d="M507.904 759.776q95.232 0 179.2-36.352t145.92-98.304 98.304-145.408 36.352-178.688-36.352-179.2-98.304-145.92-145.92-98.304-179.2-36.352-178.688 36.352-145.408 98.304-98.304 145.92-36.352 179.2 36.352 178.688 98.304 145.408 145.408 98.304 178.688 36.352zM736.256 238.56q30.72 0 55.296 15.872t24.576 47.616q0 30.72-24.576 45.568t-55.296 14.848l-452.608 0q-30.72 0-56.32-14.848t-25.6-45.568q0-31.744 25.6-47.616t56.32-15.872l452.608 0z" transform="translate(0, 812) scale(1, -1)"/>
</svg>
