<?xml version="1.0" encoding="utf-8"?>
<!-- Generator: Adobe Illustrator 19.2.0, SVG Export Plug-In . SVG Version: 6.00 Build 0)  -->
<svg version="1.1" id="Layer_1" xmlns="http://www.w3.org/2000/svg" xmlns:xlink="http://www.w3.org/1999/xlink" x="0px" y="0px"
	 viewBox="0 0 200 200" style="enable-background:new 0 0 200 200;" xml:space="preserve">
<style type="text/css">
	.st0{fill:#576CC5;}
</style>
<g>
	<path class="st0" d="M76.7,91.7V67.9c0-2.2-1.8-4-4-4s-4,1.8-4,4v23.9c-3.6,1.6-6.1,5.1-6.1,9.3c0,4.2,2.5,7.7,6.1,9.3v21.8
		c0,2.2,1.8,4,4,4s4-1.8,4-4v-21.8c3.6-1.6,6.1-5.1,6.1-9.3C82.8,96.9,80.3,93.3,76.7,91.7z"/>
	<path class="st0" d="M103.1,116.4V67.9c0-2.2-1.8-4-4-4s-4,1.8-4,4v49.3c-3.1,1.7-5.2,5-5.2,8.8c0,4.7,3.2,8.7,7.6,9.8
		c0.5,0.2,1,0.3,1.6,0.3c0.1,0,0.2,0,0.4,0c0.2,0,0.4,0,0.6,0c5.6,0,10.1-4.5,10.1-10.1C110.1,121.5,107.2,117.7,103.1,116.4z"/>
	<path class="st0" d="M131.3,75.5v-7.6c0-2.2-1.8-4-4-4s-4,1.8-4,4v7.6c-3.6,1.6-6.1,5.1-6.1,9.3s2.5,7.7,6.1,9.3v38.1
		c0,2.2,1.8,4,4,4s4-1.8,4-4V94c3.6-1.6,6.1-5.1,6.1-9.3S134.9,77,131.3,75.5z"/>
	<path class="st0" d="M100,35.6c-35.5,0-64.4,28.9-64.4,64.4s28.9,64.4,64.4,64.4s64.4-28.9,64.4-64.4S135.5,35.6,100,35.6z
		 M100,156.4c-31.1,0-56.4-25.3-56.4-56.4S68.9,43.6,100,43.6s56.4,25.3,56.4,56.4S131.1,156.4,100,156.4z"/>
</g>
</svg>
