<?xml version="1.0" encoding="utf-8"?>
<!-- Generator: Adobe Illustrator 19.2.0, SVG Export Plug-In . SVG Version: 6.00 Build 0)  -->
<svg version="1.1" id="Layer_1" xmlns="http://www.w3.org/2000/svg" xmlns:xlink="http://www.w3.org/1999/xlink" x="0px" y="0px"
	 viewBox="0 0 200 200" style="enable-background:new 0 0 200 200;" xml:space="preserve">
<style type="text/css">
	.st0{fill:#C2C2C2;}
</style>
<path class="st0" d="M147.1,56.1c-0.1-0.1-0.2-0.2-0.3-0.3c-0.1-0.1-0.1-0.1-0.2-0.2C135,43.3,118.4,35.6,100,35.6
	c-35.5,0-64.4,28.9-64.4,64.4s28.9,64.4,64.4,64.4s64.4-28.9,64.4-64.4C164.4,83.1,157.9,67.7,147.1,56.1z M43.6,100
	c0-31.1,25.3-56.4,56.4-56.4c14.8,0,28.3,5.7,38.4,15.1l-79.7,79.7C49.3,128.3,43.6,114.8,43.6,100z M100,156.4
	c-13.4,0-25.8-4.7-35.5-12.6l79.3-79.3c7.9,9.7,12.6,22,12.6,35.5C156.4,131.1,131.1,156.4,100,156.4z"/>
</svg>
