<?xml version="1.0" encoding="utf-8"?>
<!-- Generator: Adobe Illustrator 19.2.0, SVG Export Plug-In . SVG Version: 6.00 Build 0)  -->
<svg version="1.1" id="Layer_1" xmlns="http://www.w3.org/2000/svg" xmlns:xlink="http://www.w3.org/1999/xlink" x="0px" y="0px"
	 viewBox="0 0 200 200" style="enable-background:new 0 0 200 200;" xml:space="preserve">
<style type="text/css">
	.st0{fill:#C2C2C2;}
</style>
<g>
	<path class="st0" d="M123,92.8L93.3,75.6l0,0c-2.6-1.5-5.7-1.5-8.3,0c-2.6,1.5-4.2,4.2-4.2,7.2v34.3c0,3,1.6,5.7,4.2,7.2
		c1.3,0.8,2.7,1.1,4.2,1.1c1.4,0,2.9-0.4,4.2-1.1l29.7-17.1c2.6-1.5,4.2-4.2,4.2-7.2C127.2,97,125.7,94.3,123,92.8z M119,100.3
		l-29.7,17.1c-0.1,0-0.2,0.1-0.3,0c-0.2-0.1-0.2-0.2-0.2-0.3V82.9c0-0.1,0-0.2,0.2-0.3c0.1,0,0.1-0.1,0.2-0.1s0.1,0,0.2,0.1
		l29.7,17.1c0.1,0,0.2,0.1,0.2,0.3C119.2,100.2,119.1,100.3,119,100.3z"/>
	<path class="st0" d="M179.8,68.1c0-15-12.1-27.1-27.1-27.1c-6.3,0-12,2.1-16.6,5.7c-10.3-7-22.7-11.1-36.1-11.1
		c-35.5,0-64.4,28.9-64.4,64.4s28.9,64.4,64.4,64.4s64.4-28.9,64.4-64.4c0-2.4-0.2-4.9-0.4-7.2C173.3,88.5,179.8,79,179.8,68.1z
		 M100,156.4c-31.1,0-56.4-25.3-56.4-56.4S68.9,43.6,100,43.6c11.2,0,21.7,3.3,30.5,9c-3.1,4.4-4.9,9.8-4.9,15.5
		c0,15,12.1,27.1,27.1,27.1c1.2,0,2.3-0.1,3.5-0.2c0.1,1.7,0.2,3.3,0.2,5C156.4,131.1,131.1,156.4,100,156.4z M161.3,80.3h-1.1
		l-2.2-8h-8.8h-1.6l-2.2,8h-6.9l5-16.3l2.7-8.9l1.1-3.5c0.1-0.5,0.4-1,0.8-1.3c0.4-0.3,0.9-0.5,1.5-0.5h6.3c1.3,0,2,0.6,2.3,1.8
		l8.8,28.6h-5.7V80.3z"/>
	<path class="st0" d="M153.4,54.9h-1.2c-0.1,0.3-0.2,0.8-0.3,1.4c-0.1,0.6-0.3,1.1-0.4,1.5l-0.7,2.6l-1.8,6.7h6.4h1.2l-2.6-9.3
		C153.6,56.3,153.4,55.4,153.4,54.9z"/>
</g>
</svg>
