<?xml version="1.0" encoding="utf-8"?>
<!-- Generator: Adobe Illustrator 19.2.0, SVG Export Plug-In . SVG Version: 6.00 Build 0)  -->
<svg version="1.1" id="Layer_1" xmlns="http://www.w3.org/2000/svg" xmlns:xlink="http://www.w3.org/1999/xlink" x="0px" y="0px"
	 viewBox="0 0 200 200" style="enable-background:new 0 0 200 200;" xml:space="preserve">
<style type="text/css">
	.st0{fill:#576CC5;}
</style>
<g>
	<path class="st0" d="M85.9,76.1c-2.2,0-4,1.8-4,4v39.7c0,2.2,1.8,4,4,4s4-1.8,4-4V80.1C89.9,77.9,88.1,76.1,85.9,76.1z"/>
	<path class="st0" d="M114.1,76.1c-2.2,0-4,1.8-4,4v39.7c0,2.2,1.8,4,4,4s4-1.8,4-4V80.1C118.1,77.9,116.3,76.1,114.1,76.1z"/>
	<path class="st0" d="M100,35.6c-35.5,0-64.4,28.9-64.4,64.4s28.9,64.4,64.4,64.4s64.4-28.9,64.4-64.4S135.5,35.6,100,35.6z
		 M100,156.4c-31.1,0-56.4-25.3-56.4-56.4S68.9,43.6,100,43.6s56.4,25.3,56.4,56.4S131.1,156.4,100,156.4z"/>
</g>
</svg>
