<?xml version="1.0" encoding="utf-8"?>
<!-- Generator: Adobe Illustrator 19.2.0, SVG Export Plug-In . SVG Version: 6.00 Build 0)  -->
<svg version="1.1" id="Layer_1" xmlns="http://www.w3.org/2000/svg" xmlns:xlink="http://www.w3.org/1999/xlink" x="0px" y="0px"
	 viewBox="0 0 200 200" style="enable-background:new 0 0 200 200;" xml:space="preserve">
<style type="text/css">
	.st0{fill:#C2C2C2;}
</style>
<g>
	<path class="st0" d="M100,35.6c-35.5,0-64.4,28.9-64.4,64.4s28.9,64.4,64.4,64.4s64.4-28.9,64.4-64.4S135.5,35.6,100,35.6z
		 M100,156.4c-31.1,0-56.4-25.3-56.4-56.4S68.9,43.6,100,43.6s56.4,25.3,56.4,56.4S131.1,156.4,100,156.4z"/>
	<path class="st0" d="M124.4,70.6L100,95.1L75.6,70.6c-1.6-1.6-4.1-1.6-5.7,0c-1.6,1.6-1.6,4.1,0,5.7l24.4,24.4l-23,23
		c-1.6,1.6-1.6,4.1,0,5.7c0.8,0.8,1.8,1.2,2.8,1.2s2-0.4,2.8-1.2l23-23l23,23c0.8,0.8,1.8,1.2,2.8,1.2s2-0.4,2.8-1.2
		c1.6-1.6,1.6-4.1,0-5.7l-23-23l24.4-24.4c1.6-1.6,1.6-4.1,0-5.7C128.5,69.1,126,69.1,124.4,70.6z"/>
</g>
</svg>
