<?xml version="1.0" encoding="utf-8"?>
<!-- Generator: Adobe Illustrator 19.2.0, SVG Export Plug-In . SVG Version: 6.00 Build 0)  -->
<svg version="1.1" id="Layer_1" xmlns="http://www.w3.org/2000/svg" xmlns:xlink="http://www.w3.org/1999/xlink" x="0px" y="0px"
	 viewBox="0 0 200 200" style="enable-background:new 0 0 200 200;" xml:space="preserve">
<style type="text/css">
	.st0{fill:#576CC5;}
</style>
<g>
	<path class="st0" d="M100,35.6c-35.5,0-64.4,28.9-64.4,64.4s28.9,64.4,64.4,64.4s64.4-28.9,64.4-64.4S135.5,35.6,100,35.6z
		 M100,156.4c-31.1,0-56.4-25.3-56.4-56.4S68.9,43.6,100,43.6s56.4,25.3,56.4,56.4S131.1,156.4,100,156.4z"/>
	<path class="st0" d="M139.9,80.1c1.5-2,2.4-4.5,2.4-7.2c0-6.5-5.3-11.8-11.8-11.8c-2.2,0-4.3,0.6-6,1.7c-7-4.6-15.4-7.3-24.5-7.3
		c-24.6,0-44.6,20-44.6,44.6c0,24.6,20,44.6,44.6,44.6s44.6-20,44.6-44.6C144.6,92.8,142.9,86.1,139.9,80.1z M100,136.6
		c-20.2,0-36.6-16.4-36.6-36.6c0-20.2,16.4-36.6,36.6-36.6c7.1,0,13.8,2,19.4,5.6c-0.4,1.2-0.7,2.5-0.7,3.9
		c0,6.5,5.3,11.8,11.8,11.8c0.9,0,1.8-0.1,2.6-0.3c2.2,4.7,3.5,10,3.5,15.6C136.6,120.2,120.2,136.6,100,136.6z"/>
	<circle class="st0" cx="100" cy="100" r="18.7"/>
</g>
</svg>
