<?xml version="1.0" encoding="utf-8"?>
<!-- Generator: Adobe Illustrator 19.2.0, SVG Export Plug-In . SVG Version: 6.00 Build 0)  -->
<svg version="1.1" id="Layer_1" xmlns="http://www.w3.org/2000/svg" xmlns:xlink="http://www.w3.org/1999/xlink" x="0px" y="0px"
	 viewBox="0 0 200 200" style="enable-background:new 0 0 200 200;" xml:space="preserve">
<style type="text/css">
	.st0{fill:#C2C2C2;}
</style>
<g>
	<path class="st0" d="M164,91.5c-1.9-17.5-10.5-33.1-24.3-44.1c-26.9-21.6-65.8-18.4-89,6.3L52.3,30c0.1-2.2-1.5-4.1-3.7-4.3
		c-2.2-0.1-4.1,1.5-4.3,3.7L42,64.5c-0.1,2.2,1.5,4.1,3.7,4.3l34.9,2.3c0.1,0,0.2,0,0.3,0c2.1,0,3.8-1.6,4-3.7
		c0.1-2.2-1.5-4.1-3.7-4.3l-26.5-1.8c20.1-23.7,55.7-27.3,80.1-7.7c12,9.6,19.6,23.4,21.3,38.7c1.7,15.3-2.7,30.4-12.3,42.5
		c-19.9,24.9-56.3,28.9-81.2,9l-0.9-0.7c-1.7-1.4-4.2-1.1-5.6,0.6c-1.4,1.7-1.1,4.2,0.6,5.6l0.9,0.7c0,0,0,0,0,0
		c12.1,9.7,26.6,14.4,41,14.4c19.3,0,38.4-8.4,51.4-24.6C161,126.1,166,108.9,164,91.5z"/>
	<path class="st0" d="M98.6,128.5c1.4,0,2.9-0.4,4.2-1.1l30.8-17.8c2.6-1.5,4.2-4.2,4.2-7.2c0-3-1.6-5.7-4.2-7.2l-30.8-17.8
		c-2.6-1.5-5.7-1.5-8.3,0c-2.6,1.5-4.2,4.2-4.2,7.2v35.6c0,3,1.6,5.7,4.2,7.2C95.8,128.1,97.2,128.5,98.6,128.5z M98.3,84.5
		c0-0.1,0-0.2,0.2-0.3c0.1,0,0.1-0.1,0.2-0.1c0.1,0,0.1,0,0.2,0.1l30.8,17.8c0.1,0,0.2,0.1,0.2,0.3c0,0.2-0.1,0.3-0.2,0.3
		l-30.8,17.8c-0.1,0-0.2,0.1-0.3,0c-0.2-0.1-0.2-0.2-0.2-0.3V84.5z"/>
	<path class="st0" d="M79.3,123.7V82.9c0-2.2-1.8-4-4-4s-4,1.8-4,4v40.8c0,2.2,1.8,4,4,4S79.3,125.9,79.3,123.7z"/>
</g>
</svg>
