<?xml version="1.0" encoding="utf-8"?>
<!-- Generator: Adobe Illustrator 19.2.0, SVG Export Plug-In . SVG Version: 6.00 Build 0)  -->
<svg version="1.1" id="Layer_1" xmlns="http://www.w3.org/2000/svg" xmlns:xlink="http://www.w3.org/1999/xlink" x="0px" y="0px"
	 viewBox="0 0 200 200" style="enable-background:new 0 0 200 200;" xml:space="preserve">
<style type="text/css">
	.st0{fill:#C2C2C2;}
</style>
<g>
	<path class="st0" d="M75.3,74.1c-2.2,0-4,1.8-4,4v43.9c0,2.2,1.8,4,4,4s4-1.8,4-4V78.1C79.3,75.8,77.6,74.1,75.3,74.1z"/>
	<path class="st0" d="M130.5,92.8l-29.7-17.1c-2.6-1.5-5.7-1.5-8.3,0c-2.6,1.5-4.2,4.2-4.2,7.2v34.3c0,3,1.6,5.7,4.2,7.2
		c1.3,0.8,2.7,1.1,4.2,1.1c1.4,0,2.9-0.4,4.2-1.1l29.7-17.1c2.6-1.5,4.2-4.2,4.2-7.2S133.1,94.3,130.5,92.8z M126.5,100.3
		l-29.7,17.1c-0.1,0-0.2,0.1-0.3,0c-0.2-0.1-0.2-0.2-0.2-0.3V82.9c0-0.1,0-0.2,0.2-0.3c0.1,0,0.1-0.1,0.2-0.1c0.1,0,0.1,0,0.2,0.1
		l29.7,17.1c0.1,0,0.2,0.1,0.2,0.3S126.5,100.3,126.5,100.3z"/>
	<path class="st0" d="M100,35.6c-35.5,0-64.4,28.9-64.4,64.4s28.9,64.4,64.4,64.4s64.4-28.9,64.4-64.4S135.5,35.6,100,35.6z
		 M100,156.4c-31.1,0-56.4-25.3-56.4-56.4S68.9,43.6,100,43.6s56.4,25.3,56.4,56.4S131.1,156.4,100,156.4z"/>
</g>
</svg>
