<?xml version="1.0" encoding="utf-8"?>
<!-- Generator: Adobe Illustrator 19.2.0, SVG Export Plug-In . SVG Version: 6.00 Build 0)  -->
<svg version="1.1" id="Layer_1" xmlns="http://www.w3.org/2000/svg" xmlns:xlink="http://www.w3.org/1999/xlink" x="0px" y="0px"
	 viewBox="0 0 200 200" style="enable-background:new 0 0 200 200;" xml:space="preserve">
<style type="text/css">
	.st0{fill:#576CC5;}
</style>
<g>
	<path class="st0" d="M179.8,68.1c0-15-12.1-27.1-27.1-27.1c-6.3,0-12,2.1-16.6,5.7c-10.3-7-22.7-11.1-36.1-11.1
		c-35.5,0-64.4,28.9-64.4,64.4c0,35.5,28.9,64.4,64.4,64.4s64.4-28.9,64.4-64.4c0-2.4-0.2-4.9-0.4-7.2
		C173.4,88.5,179.8,79,179.8,68.1z M156.4,100c0,31.1-25.3,56.4-56.4,56.4S43.6,131.1,43.6,100c0-31.1,25.3-56.4,56.4-56.4
		c11.2,0,21.7,3.3,30.5,9c-3.1,4.4-4.9,9.8-4.9,15.5c0,15,12.1,27.1,27.1,27.1c1.2,0,2.3-0.1,3.5-0.2
		C156.3,96.6,156.4,98.3,156.4,100z M161.3,80.3h-1.1l-2.2-8h-8.8h-1.6l-2.2,8h-6.9l5-16.3l2.7-8.9l1.1-3.5c0.1-0.5,0.4-1,0.8-1.3
		c0.4-0.3,0.9-0.5,1.5-0.5h6.3c1.3,0,2,0.6,2.3,1.8l8.8,28.6H161.3z"/>
	<path class="st0" d="M153.4,54.9h-1.2c-0.1,0.3-0.2,0.8-0.3,1.4c-0.1,0.6-0.3,1.1-0.4,1.5l-0.7,2.6l-1.8,6.7h6.4h1.2l-2.6-9.3
		C153.6,56.3,153.4,55.4,153.4,54.9z"/>
	<path class="st0" d="M114,73.7H86c-6.8,0-12.3,5.5-12.3,12.3v28c0,6.8,5.5,12.3,12.3,12.3h28c6.8,0,12.3-5.5,12.3-12.3V86
		C126.3,79.2,120.8,73.7,114,73.7z M118.3,114c0,2.4-1.9,4.3-4.3,4.3H86c-2.4,0-4.3-1.9-4.3-4.3V86c0-2.4,1.9-4.3,4.3-4.3h28
		c2.4,0,4.3,1.9,4.3,4.3V114z"/>
</g>
</svg>
