<?xml version="1.0" encoding="utf-8"?>
<!-- Generator: Adobe Illustrator 19.2.0, SVG Export Plug-In . SVG Version: 6.00 Build 0)  -->
<svg version="1.1" id="Layer_1" xmlns="http://www.w3.org/2000/svg" xmlns:xlink="http://www.w3.org/1999/xlink" x="0px" y="0px"
	 viewBox="0 0 200 200" style="enable-background:new 0 0 200 200;" xml:space="preserve">
<style type="text/css">
	.st0{fill:#C2C2C2;}
</style>
<g>
	<path class="st0" d="M146.1,56h-24.2c-0.1-5.6-2.5-10.3-7.2-13.5c-3.1-2.1-6.8-3.2-10.8-3.2h-9.3c-0.8,0-1.6,0-2.2,0.1
		c-6,0.7-10.4,3.1-13.2,7.1c-2.2,3.2-2.9,6.6-3,9.4H53.9c-2.2,0-4,1.8-4,4s1.8,4,4,4h26.5c0,0,0,0,0,0c0,0,0,0,0,0h36.9c0,0,0,0,0,0
		h28.6c2.2,0,4-1.8,4-4S148.3,56,146.1,56z M85.7,51.2c1.4-2.1,4-3.3,7.6-3.8c0.3,0,0.7-0.1,1.3-0.1h9.3c2.4,0,4.5,0.6,6.3,1.8
		c2.4,1.6,3.6,3.9,3.7,6.8H84.2C84.3,54.5,84.6,52.7,85.7,51.2z"/>
	<path class="st0" d="M104.3,146.7V77c0-2.2-1.8-4-4-4s-4,1.8-4,4v69.7c0,2.2,1.8,4,4,4S104.3,148.9,104.3,146.7z"/>
	<path class="st0" d="M84.9,150.7c0.1,0,0.2,0,0.4,0c2.2-0.2,3.8-2.1,3.6-4.3l-6.1-69.4c-0.2-2.2-2.2-3.8-4.3-3.6
		c-2.2,0.2-3.8,2.1-3.6,4.3l6.1,69.4C81.1,149.1,82.8,150.7,84.9,150.7z"/>
	<path class="st0" d="M114.3,150.7c2.1,0,3.8-1.6,4-3.7l6.1-69.4c0.2-2.2-1.4-4.1-3.6-4.3c-2.2-0.2-4.1,1.4-4.3,3.6l-6.1,69.4
		c-0.2,2.2,1.4,4.1,3.6,4.3C114,150.7,114.1,150.7,114.3,150.7z"/>
	<path class="st0" d="M138.1,69.2c-2.2-0.2-4.2,1.4-4.4,3.6l-7.6,73.5c0,0.1,0,0.3,0,0.4c0,3.6-2.8,5.4-4,5.9H78.2
		c-3.2-0.6-3.5-4.7-3.5-5.2c0-0.1,0-0.2,0-0.3l-8.4-74.4C66,70.6,64,69,61.9,69.2c-2.2,0.2-3.8,2.2-3.5,4.4l8.3,74.2
		c0.2,4.1,2.7,11.7,10.7,12.7c0.2,0,0.3,0,0.5,0h44.9c0.4,0,0.9-0.1,1.3-0.2c3.7-1.2,9.9-5.4,10-13.5l7.6-73.3
		C141.9,71.4,140.3,69.4,138.1,69.2z"/>
</g>
</svg>
