<?xml version="1.0" encoding="utf-8"?>
<!DOCTYPE svg PUBLIC "-//W3C//DTD SVG 1.1//EN" "http://www.w3.org/Graphics/SVG/1.1/DTD/svg11.dtd">
<svg version="1.1" id="图形" xmlns="http://www.w3.org/2000/svg" xmlns:xlink="http://www.w3.org/1999/xlink" x="0px" y="0px" width="15px" height="15px" viewBox="0 0 1024 1024" enable-background="new 0 0 1024 1024" xml:space="preserve">
  <path fill="#ffffff" d="M696.801 139.678 533.371 351.65c-11.803 15.309-30.939 15.309-42.742 0l-163.43-211.973C313.71 122.184 320.689 108 342.779 108l105.22 0 0-192.006c0-35.347 28.653-63.993 64-63.994 35.353 0.001 64 28.651 64 63.994L575.999 108l105.222 0.001C703.312 108 710.288 122.185 696.801 139.678zM857.601 684 166.4 684C110.08 684 64 637.92 64 581.6L64 18.4c0-56.32 46.08-102.398 102.4-102.398l217.599 0 0 128L192 44.002 192 428l640 0 0-383.998L640 44.002l0-128 217.601 0C913.92-83.998 960-37.92 960 18.4L960 581.6C960 637.92 913.92 684 857.601 684zM192 517.6c-21.197 0-38.4 17.203-38.4 38.4 0 21.196 17.203 38.399 38.4 38.399 21.196 0 38.399-17.203 38.399-38.399C230.399 534.803 213.196 517.6 192 517.6zM294.399 517.6C273.203 517.6 256 534.803 256 556c0 21.196 17.203 38.399 38.399 38.399 21.198 0 38.401-17.203 38.401-38.399C332.8 534.803 315.597 517.6 294.399 517.6zM831.757 530.399 384 530.399l0 51.2 448.243 0L831.757 530.399z" transform="translate(0, 812) scale(1, -1)"/>
</svg>
