<?xml version="1.0" encoding="utf-8"?>
<!DOCTYPE svg PUBLIC "-//W3C//DTD SVG 1.1//EN" "http://www.w3.org/Graphics/SVG/1.1/DTD/svg11.dtd">
<svg version="1.1" id="图形" xmlns="http://www.w3.org/2000/svg" xmlns:xlink="http://www.w3.org/1999/xlink" x="0px" y="0px" width="15px" height="15px" viewBox="0 0 1024 1024" enable-background="new 0 0 1024 1024" xml:space="preserve">
  <path fill="#ffffff" d="M213.344 812l597.344 0q52.992 0 90.496-37.504t37.504-90.496l0-768q0-52.992-37.504-90.496t-90.496-37.504l-597.344 0q-52.992 0-90.496 37.504t-37.504 90.496l0 768q0 52.992 37.504 90.496t90.496 37.504zM341.344 86.656l341.344 0q17.664 0 30.176-12.512t12.512-30.176-12.512-30.176-30.176-12.512l-341.344 0q-17.664 0-30.176 12.512t-12.512 30.176 12.512 30.176 30.176 12.512zM341.344 257.344l341.344 0q17.664 0 30.176-12.512t12.512-30.176-12.512-30.176-30.176-12.512l-341.344 0q-17.664 0-30.176 12.512t-12.512 30.176 12.512 30.176 30.176 12.512zM810.656 726.656l-597.344 0q-17.664 0-30.176-12.512t-12.512-30.176l0-768q0-17.664 12.512-30.176t30.176-12.512l597.344 0q17.664 0 30.176 12.512t12.512 30.176l0 768q0 17.664-12.512 30.176t-30.176 12.512zM341.344 428l341.344 0q17.664 0 30.176-12.512t12.512-30.176-12.512-30.176-30.176-12.512l-341.344 0q-17.664 0-30.176 12.512t-12.512 30.176 12.512 30.176 30.176 12.512zM341.344 598.656l170.656 0q17.664 0 30.176-12.512t12.512-30.176-12.512-30.176-30.176-12.512l-170.656 0q-17.664 0-30.176 12.512t-12.512 30.176 12.512 30.176 30.176 12.512z" transform="translate(0, 812) scale(1, -1)"/>
</svg>
