<?xml version="1.0" encoding="utf-8"?>
<!-- Generator: Adobe Illustrator 19.2.0, SVG Export Plug-In . SVG Version: 6.00 Build 0)  -->
<svg version="1.1" id="Layer_1" xmlns="http://www.w3.org/2000/svg" xmlns:xlink="http://www.w3.org/1999/xlink" x="0px" y="0px"
	 viewBox="0 0 200 200" style="enable-background:new 0 0 200 200;" xml:space="preserve">
<style type="text/css">
	.st0{fill:#C2C2C2;}
</style>
<g>
	<path class="st0" d="M119.8,88c-5.9-4.5-13.5-6.8-21.1-6.5c-16.5,0.6-29.4,12.3-31.5,28.4c-0.3,2.2,1.3,4.2,3.4,4.5
		c2.2,0.3,4.2-1.3,4.5-3.4c1.9-14.3,13.3-21.1,23.9-21.5c15.8-0.6,23.9,11.4,26.1,21.8c0.4,1.9,2.1,3.2,3.9,3.2c0.3,0,0.5,0,0.8-0.1
		c2.2-0.4,3.6-2.6,3.1-4.7C130.9,100.4,126.4,93,119.8,88z"/>
	<path class="st0" d="M101.1,103.1c-8-0.3-17.3,5.3-19,18.1c-0.3,2.2,1.3,4.2,3.4,4.5c0.2,0,0.4,0,0.5,0c2,0,3.7-1.5,4-3.5
		c1-7.9,6.2-11.4,10.8-11.2c3.9,0.1,8.7,3.1,9.2,10.9c0.1,2.2,2,3.9,4.2,3.7c2.2-0.1,3.9-2,3.7-4.2
		C117.4,112.9,111.9,103.5,101.1,103.1z"/>
	<path class="st0" d="M145.8,95.8c-1.8-10.8-7.3-19.8-16.1-26.1c-7.8-5.6-17.9-8.8-28.3-8.9c-0.2,0-0.4,0-0.7,0
		c-10.6,0-20.8,3.1-28.9,8.7c-9.3,6.5-15.4,16.1-17.6,27.6c-0.4,2.2,1,4.3,3.2,4.7c0.2,0,0.5,0.1,0.7,0.1c1.9,0,3.6-1.3,3.9-3.3
		C66,78,84.2,68.8,100.7,68.8c0.2,0,0.4,0,0.5,0c16,0.2,33.5,9,36.6,28.3c0.4,2.2,2.4,3.7,4.6,3.3C144.7,100.1,146.2,98,145.8,95.8z
		"/>
	<path class="st0" d="M100,35.6c-35.5,0-64.4,28.9-64.4,64.4s28.9,64.4,64.4,64.4s64.4-28.9,64.4-64.4S135.5,35.6,100,35.6z
		 M100,156.4c-31.1,0-56.4-25.3-56.4-56.4S68.9,43.6,100,43.6s56.4,25.3,56.4,56.4S131.1,156.4,100,156.4z"/>
</g>
</svg>
