<?xml version="1.0" encoding="utf-8"?>
<!-- Generator: Adobe Illustrator 19.2.0, SVG Export Plug-In . SVG Version: 6.00 Build 0)  -->
<svg version="1.1" id="Layer_1" xmlns="http://www.w3.org/2000/svg" xmlns:xlink="http://www.w3.org/1999/xlink" x="0px" y="0px"
	 viewBox="0 0 200 200" style="enable-background:new 0 0 200 200;" xml:space="preserve">
<style type="text/css">
	.st0{fill:#C2C2C2;}
</style>
<g>
	<path class="st0" d="M100.5,36.5c-33.5,0-61,25.8-63.7,58.6l-13-18.7c-1.3-1.8-3.8-2.3-5.6-1c-1.8,1.3-2.3,3.8-1,5.6l19.5,28
		c0.8,1.1,2,1.7,3.3,1.7c0.8,0,1.6-0.2,2.3-0.7l27.9-19.4c1.8-1.3,2.3-3.8,1-5.6c-1.3-1.8-3.8-2.3-5.6-1l-21,14.6
		c1-30,25.7-54.2,55.9-54.2c30.9,0,56,25.1,56,56s-25.1,56-56,56h-1.1c-2.2,0-4,1.8-4,4s1.8,4,4,4h1.1c35.3,0,64-28.7,64-64
		S135.7,36.5,100.5,36.5z"/>
	<path class="st0" d="M128.6,135.7c0-2-1.5-3.7-3.4-3.9c-1-17.2-9.9-25-15.5-28.2c0,0,0,0-0.1,0c-0.2-0.1-0.3-0.2-0.5-0.3
		c5.4-3.2,14.8-11,16.1-27.7c1.9-0.3,3.4-1.9,3.4-3.9c0-2.2-1.8-4-4-4H76.4c-2.2,0-4,1.8-4,4c0,2,1.5,3.7,3.5,3.9
		c1.3,16.6,10.6,24.4,16,27.6c-0.1,0.1-0.3,0.1-0.4,0.2c-0.1,0-0.1,0.1-0.2,0.1c-7.4,4.3-14.6,13.5-15.5,28.2
		c-1.9,0.3-3.3,1.9-3.3,3.9c0,2.2,1.8,4,4,4h48.2C126.8,139.7,128.6,137.9,128.6,135.7z M83.9,75.6h33.2c-0.7,6.5-3.4,16.3-13,21.2
		c-0.5,0.3-0.9,0.6-1.2,1c-1.1,1-1.8,1.9-2.2,2.8c-0.5-1.1-1.4-2.3-2.9-3.4c0,0,0,0,0,0c-0.1,0-0.1-0.1-0.2-0.1
		c-0.1-0.1-0.2-0.1-0.3-0.2c-0.1-0.1-0.2-0.1-0.2-0.2C87.3,91.9,84.6,82.1,83.9,75.6z M95.2,110.5c1.3-0.5,4-1.9,5.3-4.4
		c1.2,2.6,4,4,5.2,4.4c5.5,3.1,9.3,8.9,10.8,16.5c-1.2-0.8-2.9-1.6-5-1.4c-2.7,0.2-5.1,1.7-7.3,4.6c-2.5,3.3-12.7-0.3-19.1-4
		c-0.2-0.1-0.3-0.2-0.5-0.2C86.5,118,90.8,113,95.2,110.5z"/>
	<path class="st0" d="M97.7,120.5C97.7,120.5,97.7,120.5,97.7,120.5l5.6,0c0.9,0,1.4-1,0.9-1.9l-3.2-7.1c-0.3-0.4-0.7-0.6-1.1-0.6
		c-0.4,0-0.8,0.2-1,0.6l-2.4,7.2C96.2,119.4,96.8,120.5,97.7,120.5z"/>
</g>
</svg>
