<?xml version="1.0" encoding="utf-8"?>
<!-- Generator: Adobe Illustrator 19.2.0, SVG Export Plug-In . SVG Version: 6.00 Build 0)  -->
<svg version="1.1" id="Layer_1" xmlns="http://www.w3.org/2000/svg" xmlns:xlink="http://www.w3.org/1999/xlink" x="0px" y="0px"
	 viewBox="0 0 200 200" style="enable-background:new 0 0 200 200;" xml:space="preserve">
<style type="text/css">
	.st0{fill:#576CC5;}
</style>
<g>
	<path class="st0" d="M100.5,36.5c-33.5,0-61,25.8-63.7,58.6l-13-18.7c-1.3-1.8-3.8-2.3-5.6-1c-1.8,1.3-2.3,3.8-1,5.6l19.5,28
		c0.8,1.1,2,1.7,3.3,1.7c0.8,0,1.6-0.2,2.3-0.7l27.9-19.4c1.8-1.3,2.3-3.8,1-5.6c-1.3-1.8-3.8-2.3-5.6-1l-21,14.6
		c1-30,25.7-54.2,55.9-54.2c30.9,0,56,25.1,56,56s-25.1,56-56,56h-1.1c-2.2,0-4,1.8-4,4s1.8,4,4,4h1.1c35.3,0,64-28.7,64-64
		S135.7,36.5,100.5,36.5z"/>
	<path class="st0" d="M97,105.2c0,0.1,0,0.3,0,0.4c0,0.1,0.1,0.3,0.1,0.4c0,0.1,0.1,0.2,0.1,0.3c0.1,0.1,0.1,0.3,0.2,0.4
		c0,0.1,0.1,0.2,0.1,0.3c0.1,0.1,0.2,0.3,0.3,0.4c0.1,0.1,0.1,0.1,0.2,0.2c0.1,0.1,0.3,0.2,0.4,0.3c0.1,0.1,0.1,0.1,0.2,0.2
		c0.1,0.1,0.3,0.2,0.4,0.2c0.1,0,0.2,0.1,0.2,0.1c0.1,0.1,0.3,0.1,0.5,0.1c0.1,0,0.2,0.1,0.3,0.1c0.1,0,0.3,0,0.4,0
		c0.1,0,0.2,0,0.4,0l28.9,0.2c0,0,0,0,0,0c2.2,0,4-1.8,4-4c0-2.2-1.8-4-4-4l-24.9-0.2l0.2-42.8c0-2.2-1.8-4-4-4c0,0,0,0,0,0
		c-2.2,0-4,1.8-4,4L97,104.8c0,0,0,0,0,0s0,0,0,0v0C97,105,97,105.1,97,105.2z"/>
</g>
</svg>
