<?xml version="1.0" encoding="utf-8"?>
<!-- Generator: Adobe Illustrator 19.2.0, SVG Export Plug-In . SVG Version: 6.00 Build 0)  -->
<svg version="1.1" id="Layer_1" xmlns="http://www.w3.org/2000/svg" xmlns:xlink="http://www.w3.org/1999/xlink" x="0px" y="0px"
	 viewBox="0 0 200 200" style="enable-background:new 0 0 200 200;" xml:space="preserve">
<style type="text/css">
	.st0{fill:#576CC5;}
</style>
<g>
	<path class="st0" d="M183.8,84.4c-1.6-1.5-4.2-1.3-5.6,0.3l-14.9,16.6c0-0.4,0-0.9,0-1.3c0-35.4-28.8-64.2-64.2-64.2
		S34.9,64.6,34.9,100s28.8,64.2,64.2,64.2c30.1,0,55.5-20.9,62.3-48.9l22.7-25.2C185.6,88.4,185.4,85.9,183.8,84.4z M99.1,156.2
		c-31,0-56.2-25.2-56.2-56.2s25.2-56.2,56.2-56.2S155.2,69,155.2,100c0,1.4-0.1,2.8-0.2,4.2l-19.3-17.4c-1.6-1.5-4.2-1.3-5.6,0.3
		c-1.5,1.6-1.3,4.2,0.3,5.6l23.1,20.9C147.5,138,125.3,156.2,99.1,156.2z"/>
	<path class="st0" d="M122,92.8l-29.5-17c-2.6-1.5-5.7-1.5-8.3,0C81.5,77.2,80,79.9,80,83v34c0,3,1.6,5.7,4.2,7.2
		c1.3,0.8,2.7,1.1,4.2,1.1c1.4,0,2.9-0.4,4.2-1.1l29.5-17c2.6-1.5,4.2-4.2,4.2-7.2C126.2,97,124.6,94.3,122,92.8z M118,100.3
		l-29.5,17c-0.1,0-0.2,0.1-0.3,0c-0.2-0.1-0.2-0.2-0.2-0.3V83c0-0.1,0-0.2,0.2-0.3c0.1,0,0.1-0.1,0.2-0.1s0.1,0,0.2,0.1l0,0l29.5,17
		c0.1,0,0.2,0.1,0.2,0.3C118.2,100.2,118.1,100.3,118,100.3z"/>
</g>
</svg>
